PathFileType	4	(X/Y/Z)	D:\TRACE\spot_10-12-23\spot_arm_body_motion_2_1-platform.trc
DataRate	CameraRate	NumFrames	NumMarkers	Units	OrigDataRate	OrigDataStartFrame	OrigNumFrames
100.00	100.00	      29	5	mm	100.00	1751	      7000
Frame#	Time	Left_Front			Right_Front			Left_Aft			Right_Aft			Post			
		X1	Y1	Z1	X2	Y2	Z2	X3	Y3	Z3	X4	Y4	Z4	X5	Y5	Z5	

1751	17.500	-832.94421	-26.94715	-660.07819	734.43036	-29.01114	-635.82379	-763.91278	37.85472	476.59836	643.19238	40.87281	578.61346	-44.21322	681.48010	-1011.40460	
1752	17.510	-833.00781	-28.01369	-660.33026	734.16901	-30.11398	-636.03522	-764.13983	38.52371	476.17938	642.97888	41.70734	578.41168	-44.01476	679.77191	-1012.59674	
1753	17.520	-833.12274	-28.96543	-660.65991	734.27460	-31.18807	-636.30341	-764.29163	39.29820	475.84415	642.94055	42.68339	578.13550	-44.54581	678.17664	-1014.37994	
1754	17.530	-833.09106	-30.05587	-660.69342	734.14899	-32.08275	-636.40790	-764.31927	40.10124	475.41779	642.75806	43.34544	577.60834	-44.23971	676.62073	-1015.68213	
1755	17.540	-833.14349	-31.16693	-660.99329	734.21057	-33.16776	-636.50037	-764.28076	40.66829	475.20004	642.83252	44.17560	577.43793	-44.54858	675.04034	-1017.29102	
1756	17.550	-833.17377	-32.03583	-661.18829	734.16742	-34.07291	-636.77893	-764.21210	41.28133	474.93881	642.89539	45.00091	577.20477	-44.64035	673.58862	-1018.64075	
1757	17.560	-833.25732	-32.90319	-661.26935	734.13025	-35.13766	-636.87476	-764.24255	41.91545	474.60205	642.75378	45.64412	577.02338	-44.32711	672.01019	-1020.00342	
1758	17.570	-833.24695	-34.11747	-661.60858	734.21130	-36.04197	-637.04382	-764.29749	42.38747	474.53622	642.82739	46.20397	576.55988	-44.60098	670.75366	-1021.54083	
1759	17.580	-833.08514	-34.95344	-661.64349	734.08734	-37.00440	-637.17212	-764.31372	43.02213	474.32364	642.91046	47.11911	576.28094	-44.13634	669.28986	-1022.62006	
1760	17.590	-833.02039	-35.44901	-661.68945	734.38641	-37.61462	-637.37067	-763.96729	43.78892	473.95370	643.03284	47.72524	576.08557	-44.29279	668.02429	-1024.07227	
1761	17.600	-832.70923	-36.39273	-661.86108	734.50751	-38.51345	-637.47345	-763.73016	44.33651	473.76678	643.36969	48.46091	575.85718	-43.94242	666.68219	-1025.06042	
1762	17.610	-832.27509	-37.59417	-661.87213	734.63470	-39.37143	-637.56323	-763.47723	44.75480	473.49988	643.65692	49.16452	575.63324	-43.89845	665.26190	-1026.32996	
1763	17.620	-832.05945	-38.43304	-661.90942	735.15369	-40.44513	-637.69946	-763.01544	45.33722	473.15921	643.82990	49.68181	575.44257	-43.10905	663.83630	-1027.07483	
1764	17.630	-831.75574	-39.31042	-662.11426	735.58771	-41.08115	-637.89856	-762.57184	45.91632	472.86224	644.40460	50.44389	575.14105	-42.95156	662.62720	-1028.39294	
1765	17.640	-831.33856	-40.12698	-662.35260	736.05573	-41.91898	-638.02258	-762.21417	46.43856	472.69684	644.79626	51.12712	574.79120	-42.64489	661.36932	-1029.42175	
1766	17.650	-831.14038	-40.75653	-662.85809	736.26752	-42.73829	-638.16223	-762.02954	47.16024	472.30670	645.12933	51.77146	574.83618	-42.15099	659.95349	-1030.11584	
1767	17.660	-830.83655	-41.47968	-662.74823	736.51794	-43.53321	-638.35364	-761.83142	47.56991	472.09573	644.76410	52.23235	574.63873	-41.65303	658.71002	-1031.08167	
1768	17.670	-830.35065	-42.48720	-662.93030	737.00269	-44.36098	-638.47943	-761.40942	47.94015	472.03427	645.26282	52.81677	574.27606	-41.48323	657.45123	-1032.00659	
1769	17.680	-829.89423	-43.18438	-662.87915	737.41296	-44.90655	-638.44550	-760.86871	48.40682	471.92099	645.93469	53.30544	573.79858	-40.93059	656.55408	-1032.81946	
1770	17.690	-829.49164	-43.73015	-662.83313	737.89374	-45.57814	-638.51434	-760.40942	48.87754	471.77048	646.63403	53.90924	573.70544	-40.65167	655.39758	-1032.10498	
1771	17.700	-828.75146	-44.55567	-663.19226	738.38586	-46.21143	-638.57391	-760.03015	49.33762	471.68320	647.22699	54.36256	573.55273	-39.60952	654.60632	-1033.45752	
1772	17.710	-828.62292	-44.81263	-663.12604	738.85376	-46.93283	-638.66162	-759.51276	49.71946	471.39200	647.88696	54.82233	573.37634	-39.47859	653.52692	-1035.04529	
1773	17.720	-828.13599	-45.39798	-663.39990	739.27844	-47.53289	-638.85223	-759.11584	50.06349	471.12900	648.31439	55.17426	572.97754	-39.29082	652.80994	-1035.75623	
1774	17.730	-827.48346	-46.30950	-663.44977	739.68359	-47.80533	-638.93713	-758.58740	50.31094	470.95630	648.73474	55.59288	572.96741	-38.81010	651.79205	-1036.48730	
1775	17.740	-827.00409	-46.92792	-663.20465	740.38525	-48.26137	-639.02112	-757.91144	50.66283	470.90674	649.22345	56.03259	572.85297	-38.38445	651.34955	-1035.77539	
1776	17.750	-826.51355	-46.97997	-662.95947	740.89172	-48.67332	-638.99329	-757.39032	50.91699	470.68832	649.89838	56.30031	572.69299	-37.52598	650.45465	-1037.29688	
1777	17.760	-825.90161	-47.21749	-663.11115	741.31201	-48.93328	-639.07251	-756.86023	51.10489	470.59946	650.47888	56.53423	572.66614	-36.95302	650.20624	-1038.17578	
1778	17.770	-825.28406	-47.66407	-663.48468	741.90472	-49.29393	-639.15198	-756.52344	51.31418	470.56262	651.15741	56.72568	572.70184	-36.27954	649.54016	-1038.63928	
1779	17.780	-824.94183	-47.77916	-663.64490	742.49597	-49.55441	-639.20074	-755.79797	51.45926	470.42145	651.55542	56.85093	572.61670	-36.09913	649.09167	-1038.76794	
